<svg width="40" height="40" viewBox="0 0 40 40" fill="none" xmlns="http://www.w3.org/2000/svg">
<rect width="40" height="40" rx="4" fill="#F0F2F5"/>
<path fill-rule="evenodd" clip-rule="evenodd" d="M9.25 24.6366C9.25 22.6158 10.8882 20.9775 12.9091 20.9775H18.7273C20.7481 20.9775 22.3864 22.6158 22.3864 24.6366V26.0912C22.3864 26.5054 22.0506 26.8412 21.6364 26.8412C21.2222 26.8412 20.8864 26.5054 20.8864 26.0912V24.6366C20.8864 23.4442 19.9197 22.4775 18.7273 22.4775H12.9091C11.7167 22.4775 10.75 23.4442 10.75 24.6366V26.0912C10.75 26.5054 10.4142 26.8412 10 26.8412C9.58579 26.8412 9.25 26.5054 9.25 26.0912V24.6366Z" fill="#191919"/>
<path fill-rule="evenodd" clip-rule="evenodd" d="M15.8183 13.75C14.6258 13.75 13.6592 14.7167 13.6592 15.9091C13.6592 17.1015 14.6258 18.0682 15.8183 18.0682C17.0107 18.0682 17.9774 17.1015 17.9774 15.9091C17.9774 14.7167 17.0107 13.75 15.8183 13.75ZM12.1592 15.9091C12.1592 13.8882 13.7974 12.25 15.8183 12.25C17.8391 12.25 19.4774 13.8882 19.4774 15.9091C19.4774 17.93 17.8391 19.5682 15.8183 19.5682C13.7974 19.5682 12.1592 17.93 12.1592 15.9091Z" fill="#191919"/>
<path fill-rule="evenodd" clip-rule="evenodd" d="M23.0924 21.634C23.1959 21.2329 23.605 20.9917 24.006 21.0953C25.6206 21.5122 26.7491 22.9679 26.7504 24.6355L26.7504 26.0906C26.7504 26.5048 26.4146 26.8406 26.0004 26.8406C25.5861 26.8406 25.2504 26.5048 25.2504 26.0906V24.6363C25.2495 23.6525 24.5836 22.7936 23.631 22.5477C23.23 22.4441 22.9888 22.035 23.0924 21.634Z" fill="#191919"/>
<path fill-rule="evenodd" clip-rule="evenodd" d="M27.1832 21.634C27.2867 21.2329 27.6958 20.9917 28.0969 21.0953C29.7114 21.5122 30.8399 22.9679 30.8412 24.6355L30.8412 26.0906C30.8412 26.5048 30.5054 26.8406 30.0912 26.8406C29.677 26.8406 29.3412 26.5048 29.3412 26.0906V24.6363C29.3403 23.6525 28.6745 22.7936 27.7219 22.5477C27.3208 22.4441 27.0796 22.035 27.1832 21.634Z" fill="#191919"/>
<path fill-rule="evenodd" clip-rule="evenodd" d="M20.1828 12.9089C20.2855 12.5076 20.6941 12.2656 21.0954 12.3683C22.7145 12.7829 23.8469 14.2418 23.8469 15.9131C23.8469 17.5844 22.7145 19.0433 21.0954 19.4578C20.6941 19.5606 20.2855 19.3186 20.1828 18.9173C20.0801 18.516 20.3221 18.1074 20.7233 18.0047C21.6787 17.7601 22.3469 16.8993 22.3469 15.9131C22.3469 14.9269 21.6787 14.0661 20.7233 13.8215C20.3221 13.7187 20.0801 13.3101 20.1828 12.9089Z" fill="#191919"/>
<path fill-rule="evenodd" clip-rule="evenodd" d="M24.2736 12.9089C24.3764 12.5076 24.7849 12.2656 25.1862 12.3683C26.8053 12.7829 27.9377 14.2418 27.9377 15.9131C27.9377 17.5844 26.8053 19.0433 25.1862 19.4578C24.7849 19.5606 24.3764 19.3186 24.2736 18.9173C24.1709 18.516 24.4129 18.1074 24.8142 18.0047C25.7695 17.7601 26.4377 16.8993 26.4377 15.9131C26.4377 14.9269 25.7695 14.0661 24.8142 13.8215C24.4129 13.7187 24.1709 13.3101 24.2736 12.9089Z" fill="#191919"/>
</svg>
