<svg width="40" height="40" viewBox="0 0 40 40" fill="none" xmlns="http://www.w3.org/2000/svg">
<rect width="40" height="40" rx="4" fill="#F0F2F5"/>
<path fill-rule="evenodd" clip-rule="evenodd" d="M25 11.5H15C14.7239 11.5 14.5 11.7239 14.5 12V29C14.5 29.2761 14.7239 29.5 15 29.5H25C25.2761 29.5 25.5 29.2761 25.5 29V12C25.5 11.7239 25.2761 11.5 25 11.5ZM15 10C13.8954 10 13 10.8954 13 12V29C13 30.1046 13.8954 31 15 31H25C26.1046 31 27 30.1046 27 29V12C27 10.8954 26.1046 10 25 10H15Z" fill="#191919"/>
<rect x="23" y="19" width="1.5" height="3" rx="0.75" fill="#191919"/>
</svg>
