<svg width="359" height="462" viewBox="0 0 359 462" fill="none" xmlns="http://www.w3.org/2000/svg">
<path fill-rule="evenodd" clip-rule="evenodd" d="M28.6426 229.454C28.6426 229.454 34.3548 265.624 39.114 285.612C39.114 285.612 40.0669 318.928 41.0198 330.349C41.9727 341.771 44.8288 366.517 44.8288 366.517C44.8288 366.517 48.1613 369.375 51.9677 367.473C51.9677 367.473 56.7296 296.558 57.6799 285.136C58.6328 273.714 61.9653 222.316 61.9653 222.316C61.9653 222.316 51.0174 212.321 28.6426 229.454Z" fill="#F5B697"/>
<path fill-rule="evenodd" clip-rule="evenodd" d="M64.3457 215.177C64.3457 215.177 70.0579 251.348 74.8172 271.336C74.8172 271.336 75.77 304.651 76.7229 316.073C77.6732 327.494 80.5293 352.241 80.5293 352.241C80.5293 352.241 83.8619 355.099 87.6708 353.196C87.6708 353.196 92.4301 282.281 93.383 270.859C94.3359 259.435 94.8123 208.513 94.8123 208.513C94.8123 208.513 86.7205 198.044 64.3457 215.177Z" fill="#F5B697"/>
<path fill-rule="evenodd" clip-rule="evenodd" d="M35.7833 180.592C35.7833 180.592 22.296 195.343 30.0711 245.317C30.5475 252.455 35.3068 270.859 35.3068 270.859C35.3068 270.859 52.9198 273.715 73.8678 265.622C94.8107 257.532 95.2872 253.25 95.2872 253.25C95.2872 253.25 96.2401 190.585 91.4782 174.405C86.7189 158.223 35.7833 180.592 35.7833 180.592Z" fill="url(#paint0_linear_1_1006)"/>
<path fill-rule="evenodd" clip-rule="evenodd" d="M87.9086 349.862C87.9086 349.862 87.4322 353.431 91.2412 356.286C95.0476 359.142 102.189 364.379 103.379 367.471C103.379 369.85 94.3342 367.232 90.2883 365.092C86.2424 362.95 82.4334 357.952 82.4334 357.952L82.6729 360.095C82.6729 360.095 81.2436 360.095 80.0538 358.905C78.8639 357.715 80.2907 350.339 80.2907 350.339L87.9086 349.862Z" fill="#335FAA"/>
<path fill-rule="evenodd" clip-rule="evenodd" d="M52.2069 366.282C52.2069 366.282 51.7305 369.851 55.5395 372.706C59.3484 375.562 66.4874 380.799 67.6772 383.891C67.6772 386.27 58.635 383.652 54.5866 381.512C50.5432 379.37 46.7343 374.372 46.7343 374.372L46.9712 376.514C46.9712 376.514 45.5444 376.514 44.352 375.325C43.1622 374.135 44.5916 366.759 44.5916 366.759L52.2069 366.282Z" fill="#335FAA"/>
<path fill-rule="evenodd" clip-rule="evenodd" d="M90.8623 52.573C88.1865 70.2283 72.6673 69.4276 69.9915 79.0573C67.3157 88.687 77.4832 102.599 63.5711 111.695C49.6563 120.789 43.2334 118.65 39.4888 137.912C35.7416 157.174 47.1904 131.331 28.6429 145.24C10.0953 159.15 -0.0483832 149.091 5.83634 128.76C11.7236 108.43 -2.52113 111.235 1.75914 94.648C6.04198 78.0613 4.17891 61.6926 18.6267 55.2736C33.0771 48.8521 22.8982 26.0887 37.3461 18.5987C52.1055 10.949 70.5271 6.82929 81.2304 19.1342C81.2304 19.1342 93.5381 34.9151 90.8623 52.573Z" fill="#D4AC73"/>
<path fill-rule="evenodd" clip-rule="evenodd" d="M27.674 105.845C25.0574 112.136 21.3566 131.712 29.9506 141.308C44.8337 157.933 28.2925 186.493 30.2549 194.892C32.2225 203.288 52.416 204.334 66.4337 201.625C80.4514 198.914 93.4339 191.746 92.9034 175.406C92.3728 159.064 96.6969 136.648 97.588 129.286C98.4739 121.925 96.4909 104.623 93.0733 92.2278C92.3522 89.6118 84.5643 85.6797 84.5643 85.6797C84.5643 85.6797 76.7455 80.5146 55.3081 80.5146C53.3791 80.5146 51.3369 80.5558 49.1813 80.6485C49.1813 80.6485 30.2906 99.5578 27.674 105.845Z" fill="#08DA9C"/>
<path fill-rule="evenodd" clip-rule="evenodd" d="M72.1974 77.0833C72.1974 77.0833 72.1305 77.4129 72.2077 77.9356C72.4988 79.8744 73.4645 84.836 73.6448 86.9062C73.8173 88.8939 71.5639 92.3338 66.1994 92.2257C60.8375 92.1175 51.7361 89.8749 48.7075 83.4843C48.9547 82.3488 48.571 70.5151 47.8164 64.6162L72.1974 77.0833Z" fill="#F6A682"/>
<path fill-rule="evenodd" clip-rule="evenodd" d="M87.0644 41.4256C84.1928 26.085 72.0371 17.3797 58.2898 20.593C58.2898 20.593 43.3887 22.0864 36.7674 35.1714C30.1435 48.2591 39.8707 59.2637 46.098 66.2028C48.7248 69.0505 50.7079 71.252 51.9595 72.6501C52.4128 73.1779 52.8583 73.716 53.3296 74.1975C53.4172 74.2954 53.4635 74.3469 53.4635 74.3469L53.479 74.334C57.7309 78.585 62.6112 80.9924 66.2168 82.0635C72.2122 83.8504 79.3022 82.8282 83.1292 78.7472C86.9562 74.6661 89.9359 56.7636 87.0644 41.4256Z" fill="url(#paint1_linear_1_1006)"/>
<path fill-rule="evenodd" clip-rule="evenodd" d="M89.5258 51.7706C89.5258 51.7706 78.5547 52.8417 72.1343 45.3517C65.7113 37.8616 56.6125 45.3517 49.1208 38.9301C49.1208 38.9301 52.3323 46.9558 49.1208 54.9814C45.9093 63.007 44.8405 75.3145 44.8405 75.3145L30.9258 53.3773V34.1153L48.5877 17.5285L72.1343 16.46L83.3706 27.1582C83.3706 27.1582 90.5971 43.745 89.5258 51.7706Z" fill="#D4AC73"/>
<path fill-rule="evenodd" clip-rule="evenodd" d="M61.4734 174.32C70.5722 173.254 107.498 134.197 107.498 129.379C107.498 124.567 103.215 121.354 98.9322 122.422C94.6519 123.496 66.2894 153.994 63.6136 152.92C60.9378 151.849 51.871 120.51 37.4232 110.342C37.4232 110.342 36.2076 110.049 34.5491 110.049C29.8877 110.049 21.7289 112.376 27.2531 130.14C34.7474 154.214 52.3747 175.393 61.4734 174.32Z" fill="url(#paint2_linear_1_1006)"/>
<path fill-rule="evenodd" clip-rule="evenodd" d="M102.473 131.139C102.473 131.139 97.4641 129.666 98.9372 124.362C100.41 119.058 110.137 114.933 111.611 114.64C113.084 114.346 127.526 117.289 128.114 119.058C128.703 120.827 125.461 121.71 121.925 120.827C118.389 119.941 113.084 119.648 113.084 119.648C113.084 119.648 116.913 123.772 116.62 125.541C116.326 127.31 114.263 130.845 111.314 132.318C108.368 133.791 104.832 130.549 104.832 130.549L102.473 131.139Z" fill="#FF9D6F"/>
<path fill-rule="evenodd" clip-rule="evenodd" d="M120.97 58.5294C117.125 60.7367 113.987 66.1639 114 70.5812L114.465 234.29C114.496 244.723 121.949 248.989 131.028 243.775L229.028 187.473C232.875 185.261 236.013 179.836 236 175.416L235.533 11.7098C235.504 1.27696 228.051 -2.9887 218.972 2.22517L120.97 58.5294Z" fill="url(#paint3_linear_1_1006)" fill-opacity="0.5"/>
<path fill-rule="evenodd" clip-rule="evenodd" d="M134.951 111.718C133.803 112.383 132.878 113.984 132.881 115.295L132.907 124.005C132.909 125.323 133.841 125.854 134.99 125.192L214.68 79.1935C215.826 78.5292 216.753 76.9277 216.748 75.612L216.725 66.8989C216.719 65.5883 215.79 65.0579 214.641 65.7222L134.951 111.718Z" fill="white"/>
<path fill-rule="evenodd" clip-rule="evenodd" d="M135.004 137.677C133.856 138.341 132.931 139.943 132.934 141.264L132.959 149.972C132.962 151.29 133.894 151.812 135.043 151.148L214.733 105.152C215.879 104.488 216.806 102.894 216.801 101.576L216.775 92.8678C216.772 91.547 215.842 91.0166 214.694 91.6783L135.004 137.677Z" fill="white"/>
<path fill-rule="evenodd" clip-rule="evenodd" d="M166.111 151.793C163.389 153.363 161.197 157.171 161.205 160.287L161.213 162.285C161.221 165.411 163.428 166.667 166.147 165.099L191.922 150.222C194.641 148.651 196.843 144.848 196.835 141.725L196.828 139.725C196.82 136.609 194.603 135.345 191.883 136.918L166.111 151.793Z" fill="white"/>
<path fill-rule="evenodd" clip-rule="evenodd" d="M243.601 156.986C243.601 156.986 234.089 149.257 231.824 147.198C229.557 145.137 228.199 145.773 227.068 146.638C225.934 147.502 225.707 146.828 224.122 147.237C222.537 147.645 222.763 149.433 221.857 149.412C220.951 149.39 216.8 151.446 212.383 152.901C209.483 153.857 207.625 154.682 208.759 156.269C209.891 157.856 218.196 153.411 218.724 155.837C218.968 156.953 218.913 156.472 218.458 158.469C218.005 160.464 220.951 161.425 224.348 161.951C227.746 162.479 231.145 162.334 233.636 162.841C236.127 163.345 239.751 165.436 239.751 165.436L244.054 157.74" fill="#FEBB8E"/>
<path fill-rule="evenodd" clip-rule="evenodd" d="M317.288 155.17L275.009 177.937L242.394 154.578L231.521 170.961L266.554 197.941L289.505 198.489L317.288 189.638V155.17Z" fill="#647DEF"/>
<path fill-rule="evenodd" clip-rule="evenodd" d="M298 443.701C298 443.701 268.093 437.782 266.492 444.114C264.89 450.451 278.24 456.987 285.184 457.778C292.126 458.572 300.672 459.195 300.672 459.195L301.205 461.374C301.205 461.374 310.081 462.161 311.421 460.678C312.76 459.195 313.324 450.984 313.324 450.984L298 443.701Z" fill="#0A1921"/>
<path fill-rule="evenodd" clip-rule="evenodd" d="M329.885 426.96C329.885 426.96 303.826 421.481 302.43 427.837C301.033 434.197 312.668 440.537 318.716 441.229C324.765 441.919 332.212 444.272 332.212 444.272L332.676 445.494C332.676 445.494 341.98 446.554 343.104 445.494C344.227 444.434 343.762 435.395 343.762 435.395L329.885 426.96Z" fill="#0A1921"/>
<path fill-rule="evenodd" clip-rule="evenodd" d="M346.067 271.206C357.817 274.051 347.137 345.026 347.137 345.026C347.137 345.026 347.671 372.829 347.137 385.324C346.493 400.394 343.602 435.722 343.602 435.722C343.602 435.722 334.978 438.724 328.034 428.406L322.034 349.182L319.364 334.337L316.695 370.631C316.695 370.631 315.334 401.931 314.558 411.726C313.783 421.521 312.434 445.089 312.434 451.189C312.434 452.693 296.294 454.247 295.453 443.397C294.612 432.547 290.525 371.156 290.525 371.156C290.525 371.156 286.252 344.596 284.118 322.795C281.98 300.992 283.583 260.565 283.583 260.565L348.739 271.011" fill="url(#paint4_linear_1_1006)"/>
<path fill-rule="evenodd" clip-rule="evenodd" d="M289.99 94.3477L290.912 127.743C290.992 130.709 293.571 133.359 296.72 133.719C299.829 134.074 302.384 136.659 302.525 139.588L302.416 149.246L304.453 149.294C312.797 152.439 320.497 149.201 328.441 146.866L331.114 103.553L289.99 94.3477Z" fill="#FEBB8E"/>
<mask id="mask0_1_1006" style="mask-type:alpha" maskUnits="userSpaceOnUse" x="285" y="71" width="55" height="65">
<path fill-rule="evenodd" clip-rule="evenodd" d="M285.512 71.8193H339.751V135.407H285.512V71.8193Z" fill="white"/>
</mask>
<g mask="url(#mask0_1_1006)">
<path fill-rule="evenodd" clip-rule="evenodd" d="M287.069 82.9904C285.249 85.2528 285.006 88.4299 286.436 91.279L288.209 94.8091C289.34 97.0644 291.397 98.8598 293.848 99.7369L296.706 100.759C301.207 102.368 304.291 106.605 304.125 110.948L304.055 112.784C303.939 115.851 304.806 118.992 306.546 121.805L307.85 116.749C308.339 114.861 310.186 113.699 312.312 113.941C314.537 114.194 316.442 115.911 316.827 118.011C317.414 121.192 316.344 124.255 313.961 126.218L313.489 126.608L318.38 132.414C319.992 134.328 322.428 135.453 324.854 135.405C327.113 135.361 329.087 134.302 330.184 132.547L336.83 121.914C339.355 117.871 340.281 112.984 339.46 108.013L338.678 103.274C337.042 93.3596 328.78 84.8588 318.377 82.3913L308.134 72.056C300.508 70.2481 299.515 79.3194 292.075 80.2804C290.04 80.5442 288.264 81.5052 287.069 82.9904Z" fill="#003C6D"/>
</g>
<path fill-rule="evenodd" clip-rule="evenodd" d="M281.309 159.307C292.823 136.876 324.859 138.247 324.859 138.247C330.876 135.864 337.338 142.388 343.217 148.279C351.344 156.42 356.213 276.877 356.213 276.877C341.008 291.277 317.797 295.936 295.303 289.104L278.774 284.083L281.978 221.781C281.978 221.781 271.383 178.643 281.309 159.307Z" fill="#647DEF"/>
<path fill-rule="evenodd" clip-rule="evenodd" d="M279.535 219.183C275.211 225.712 265.239 226.318 258.507 220.465C253.228 215.874 251.722 208.75 254.924 203.506L285.183 153.962L302.782 170.915C305.7 173.729 306.433 177.838 304.539 180.86C299.069 189.591 287.476 207.192 279.535 219.183Z" fill="url(#paint5_linear_1_1006)"/>
<defs>
<linearGradient id="paint0_linear_1_1006" x1="27.6562" y1="168.528" x2="27.6562" y2="271.348" gradientUnits="userSpaceOnUse">
<stop stop-color="#0A5DC4"/>
<stop offset="1" stop-color="#013180"/>
</linearGradient>
<linearGradient id="paint1_linear_1_1006" x1="34.5488" y1="19.9297" x2="34.5488" y2="82.9081" gradientUnits="userSpaceOnUse">
<stop stop-color="#FFCDB5"/>
<stop offset="1" stop-color="#FDC4A7"/>
</linearGradient>
<linearGradient id="paint2_linear_1_1006" x1="107.498" y1="110.049" x2="25.4023" y2="110.049" gradientUnits="userSpaceOnUse">
<stop stop-color="#30F4BA"/>
<stop offset="1" stop-color="#08DA9C"/>
</linearGradient>
<linearGradient id="paint3_linear_1_1006" x1="114" y1="0" x2="114" y2="246" gradientUnits="userSpaceOnUse">
<stop stop-color="#87A3FF"/>
<stop offset="1" stop-color="#6887F0"/>
</linearGradient>
<linearGradient id="paint4_linear_1_1006" x1="283.006" y1="260.565" x2="283.006" y2="452.253" gradientUnits="userSpaceOnUse">
<stop stop-color="#1F2A6D"/>
<stop offset="1" stop-color="#151A3E"/>
</linearGradient>
<linearGradient id="paint5_linear_1_1006" x1="274.987" y1="139.605" x2="225.796" y2="180.128" gradientUnits="userSpaceOnUse">
<stop stop-color="#647DEF"/>
<stop offset="1" stop-color="#4567D9"/>
</linearGradient>
</defs>
</svg>
