<svg width="53" height="30" viewBox="0 0 53 30" fill="none" xmlns="http://www.w3.org/2000/svg">
<path d="M11.4413 18.1568C12.6136 16.9845 15.9308 13.1389 17.6344 11.1696C17.9346 10.8154 18.3849 10.3141 17.6209 10.3141H13.268C12.7388 10.343 12.2394 10.5683 11.8676 10.946L7.51468 15.8828C7.21448 16.2295 6.95781 16.1334 6.95781 15.6726V2.83456C6.95546 2.61343 6.86636 2.40207 6.70971 2.24598C6.55306 2.08989 6.34139 2.00156 6.12025 2H2.84056C2.61787 2.00079 2.40453 2.0896 2.24707 2.24707C2.0896 2.40453 2.00079 2.61787 2 2.84056V26.9782C2.00079 27.2009 2.0896 27.4142 2.24707 27.5717C2.40453 27.7291 2.61787 27.818 2.84056 27.8187H6.12025C6.34294 27.818 6.55628 27.7291 6.71374 27.5717C6.87121 27.4142 6.96002 27.2009 6.96081 26.9782V20.3858C6.96081 19.9235 7.18897 19.8469 7.46665 20.2162C7.46665 20.2162 11.5569 25.6333 12.7967 27.3444C13.1945 27.8923 13.4451 27.8187 13.6973 27.8187H17.7665C18.2288 27.8187 18.3819 27.5185 18.1073 27.1448L11.4413 18.1568Z" fill="white"/>
<path d="M25.821 10.314H22.5428C22.0785 10.314 21.7022 10.6903 21.7022 11.1545V26.9781C21.7022 27.4423 22.0785 27.8187 22.5428 27.8187H25.821C26.2852 27.8187 26.6615 27.4423 26.6615 26.9781V11.1545C26.6615 10.6903 26.2852 10.314 25.821 10.314Z" fill="white"/>
<path d="M42.2193 19.6007C41.7322 19.0891 41.1643 18.6611 40.5382 18.3339C39.6678 17.8717 38.7648 17.4738 37.8364 17.1436C37.305 16.9435 36.8672 16.7588 36.523 16.5897C36.2389 16.4562 35.9663 16.2996 35.7079 16.1214C35.5358 16.0106 35.3973 15.8549 35.3072 15.6711C35.2369 15.503 35.2027 15.322 35.2066 15.1398C35.2066 14.2772 35.9836 13.8454 37.5377 13.8444C38.3034 13.8361 39.0677 13.9136 39.8162 14.0755C40.2455 14.1731 40.6582 14.2722 41.0455 14.3983C41.6459 14.5919 41.7765 14.2632 41.82 14.056C41.9491 13.4256 42.3769 11.5674 42.3769 11.5674C42.4225 11.3438 42.3847 11.1114 42.2708 10.9137C42.1569 10.716 41.9747 10.5668 41.7585 10.4942C41.2576 10.3475 40.7496 10.2262 40.2365 10.1309C39.2271 9.93982 38.2017 9.84533 37.1744 9.84872C35.044 9.84872 33.3694 10.3255 32.1506 11.2792C30.9317 12.2328 30.3213 13.5337 30.3193 15.1818C30.301 15.9196 30.4253 16.6541 30.6856 17.3447C30.9182 17.9257 31.2688 18.4522 31.7153 18.8908C32.1918 19.3436 32.7375 19.7175 33.3318 19.9985C34.0203 20.3338 34.7252 20.6344 35.4438 20.8991C36.2158 21.1714 36.9622 21.5114 37.6742 21.9153C38.1621 22.2155 38.4082 22.5622 38.4082 22.966C38.4082 23.4778 38.2191 23.8231 37.8409 23.9987C37.4626 24.1743 36.8202 24.2659 35.9121 24.2659C35.0275 24.2644 34.1456 24.1699 33.2808 23.9837C32.8575 23.8936 32.4387 23.7885 32.026 23.6655C31.7258 23.5754 31.4256 23.4753 31.1254 23.3653C30.9753 23.3127 30.6841 23.2151 30.5985 23.6204C30.4484 24.3154 30.0236 26.4018 30.0236 26.4018C29.9634 26.631 29.9946 26.8745 30.1105 27.0812C30.2265 27.2879 30.4181 27.4414 30.6451 27.5095C30.6451 27.5095 30.9678 27.6251 31.996 27.8908C33.0241 28.1565 34.3195 28.29 35.8745 28.29C38.2461 28.29 40.0814 27.8472 41.3802 26.9617C42.6791 26.0761 43.3295 24.7697 43.3315 23.0425C43.3447 22.3907 43.2628 21.7404 43.0884 21.1122C42.9143 20.5502 42.6174 20.0339 42.2193 19.6007Z" fill="white"/>
<path d="M50.7091 10.314H47.4324C46.9682 10.314 46.5919 10.6903 46.5919 11.1545V26.9781C46.5919 27.4423 46.9682 27.8187 47.4324 27.8187H50.7091C51.1733 27.8187 51.5497 27.4423 51.5497 26.9781V11.1545C51.5497 10.6903 51.1733 10.314 50.7091 10.314Z" fill="white"/>
</svg>
